PathFileType	4	(X/Y/Z)	64_1_4_p0_0-635_filt_butterworth.trc
DataRate	CameraRate	NumFrames	NumMarkers	Units	OrigDataRate	OrigDataStartFrame	OrigNumFrames
48.0	48.0	5	27	m	48.0	158	635
Frame#	Time	RHip			RKnee			RAnkle			RBigToe			RSmallToe			RHeel			LHip			LKnee			LAnkle			LBigToe			LSmallToe			LHeel			Neck			Head			Nose			RShoulder			RElbow			RWrist			RThumb			RIndex			RPinky			LShoulder			LElbow			LWrist			LThumb			LIndex			LPinky			
		X1	Y1	Z1	X2	Y2	Z2	X3	Y3	Z3	X4	Y4	Z4	X5	Y5	Z5	X6	Y6	Z6	X7	Y7	Z7	X8	Y8	Z8	X9	Y9	Z9	X10	Y10	Z10	X11	Y11	Z11	X12	Y12	Z12	X13	Y13	Z13	X14	Y14	Z14	X15	Y15	Z15	X16	Y16	Z16	X17	Y17	Z17	X18	Y18	Z18	X19	Y19	Z19	X20	Y20	Z20	X21	Y21	Z21	X22	Y22	Z22	X23	Y23	Z23	X24	Y24	Z24	X25	Y25	Z25	X26	Y26	Z26	X27	Y27	Z27	
158	3.2916666666666665	0.3157850518654292	0.28742510267462085	1.0254357840574626	0.2932798808305265	-0.13121130735080677	1.0526486174761185	0.24444588482176668	-0.5770256719261608	1.1049969063256984	0.288312903039253	-0.564857271117904	0.9089581804330685	0.3407671262209893	-0.5554555793386295	0.9314642767637682	0.19024151442642193	-0.6494585693713713	1.1898032916164516	0.11723258317370477	0.2738047519696123	0.9794647134535488	0.08721052496621715	-0.15477184396966415	0.9965817161745354	0.07548344499192639	-0.5829604652831446	1.0408357397179653	0.14836572979478593	-0.5380871346336636	0.8353377426228954	0.07841331515274604	-0.5472472828585713	0.8779797737846853	0.07386100268165734	-0.6322121753054316	1.1032111822587758	0.24114268006353962	0.8197471343193923	0.9667296549324634	0.2939974052340661	1.04281302391017	0.874564232881403	0.29492144915307367	0.9289126092777997	0.836471279354274	0.37762172941861416	0.7369406998302486	1.009956512390726	0.3922168937433947	0.5110515042837539	1.1593992229700727	0.43090840422554216	0.4896054403077525	0.9609340639851425	0.4388040643372949	0.5182640200519084	0.7957539395211675	0.4446528803110839	0.5081585822021183	0.7861836270706213	0.43496687429453545	0.45736543965349064	0.8228496746680479	0.09918936315314278	0.7533427992817718	0.9240730763002133	-0.004431382440671296	0.5297244935033285	0.9859108544030766	0.11620269844803909	0.5000019189956768	0.8411242369603427	0.1966829714916222	0.5320998637381783	0.7625454054022658	0.21614687183500286	0.5294718803132588	0.725947738525236	0.17116319874562028	0.4770567699566922	0.786909357163931	
159	3.3125	0.31543837075723097	0.28676174383633574	1.026521847909844	0.29290180835935925	-0.13135604754302505	1.051171066826543	0.2435276904669825	-0.5774575256533676	1.1043359837396065	0.28978618304763104	-0.563589373756656	0.906742351322392	0.3409985966228535	-0.5548304006209699	0.931881180701727	0.1899696301889664	-0.6495984001959636	1.1897467654323581	0.11675940100121159	0.27313470142868296	0.9796687138046143	0.0871442229303387	-0.1557145380248508	0.9967706152370637	0.07526851701181309	-0.5832701420622551	1.040805802164015	0.14942745706614968	-0.536690778264685	0.8323129062473891	0.0792319270978163	-0.5469937754874467	0.8773002988774535	0.07291501988046117	-0.6335804909830604	1.1045491728901469	0.24131854422637897	0.8199984685744227	0.9667179077681018	0.2944703141616875	1.0428817723215946	0.8752349581138448	0.2965977167659345	0.9289419041391627	0.8376151984812401	0.3763513104337158	0.7356523284391684	1.0106970416193706	0.39000203356780866	0.5098289982031468	1.1635888726847057	0.4273469664326954	0.4882377247612368	0.9625241549173048	0.4376870278066568	0.5160593599489064	0.7949970384136436	0.44207698203422396	0.503063358495376	0.7860239408257412	0.4343958176093763	0.45578706338053243	0.8222014503996432	0.09915368214529888	0.752773932245038	0.9243002394905784	-0.004413614903009703	0.529822162293279	0.9858399438080172	0.11842686564604289	0.5004743957450579	0.839977025388161	0.1996860911827834	0.532042845598333	0.760351020233058	0.21826028306833964	0.5310898089614913	0.721371952365901	0.17184126657669854	0.47557984227883354	0.7872126218192004	
160	3.333333333333333	0.3151974488012012	0.2861839065219387	1.0274558203897894	0.2924586049030554	-0.13112943369077618	1.0492888006584344	0.24235569097904017	-0.5779468116028208	1.1039703398740979	0.29071262463125747	-0.562615871618999	0.9051091474071085	0.341133619776794	-0.5544343297842502	0.9319627333001853	0.18987008881447393	-0.649579617649722	1.18929936278459	0.11668325350889128	0.27279796101069814	0.9794708309067648	0.08709505613523594	-0.15656067823159092	0.996966936463937	0.07500755090736294	-0.5836273488100654	1.0407557291653124	0.14985832900663515	-0.536184129809832	0.8301628959916809	0.07932834361198401	-0.5475973647797028	0.8776983237422719	0.07202372324718195	-0.6348679728916242	1.1058356315752538	0.24156383874668869	0.8201919494406952	0.9666177362288612	0.2950329976893287	1.0429226079838159	0.8768567157492551	0.29797073651195327	0.9289476020648395	0.8391871319179328	0.37623465509764215	0.7350349442002115	1.010026248292021	0.38855698902908997	0.5083954168936824	1.1664282198247715	0.42470414473871726	0.48645633808066063	0.9623468205915395	0.43623176213265313	0.5138995999345521	0.7942825918094685	0.4394700433490689	0.49696390426714576	0.785943750466366	0.43388221007456235	0.4546568833133817	0.8202344154281247	0.09914977127378952	0.7524495117227785	0.9244366324974747	-0.004360582326435167	0.5302591769564104	0.9857690569822619	0.12031620116932515	0.5005013665665213	0.8390511230041802	0.20291596714504256	0.5323368543072795	0.7580697098400633	0.22014619815449923	0.5324768280116889	0.7178257694515381	0.17329585834041966	0.47416015756493834	0.78701852678622	
161	3.3541666666666665	0.31504533147014707	0.2857157958498707	1.0282826961933602	0.2921394266688428	-0.13056174571165674	1.0469831579330857	0.24094967376212154	-0.5786380185137181	1.1041280137737803	0.29102102575754285	-0.5614342100408868	0.9033536623311865	0.34119420579798854	-0.5537765260201789	0.9308805908180454	0.18991357904567396	-0.6495231853605322	1.188546242026564	0.1169774616252447	0.27295797191076787	0.9787256863571616	0.08708783330197872	-0.15720391025068992	0.9971475848389293	0.0747220043818314	-0.5840813970609843	1.0406726329414342	0.1499065730911712	-0.5361745248015194	0.8287679018848252	0.07904317385915034	-0.5482300293126551	0.87817666379028	0.0712223693850146	-0.6360683423118969	1.10711212127935	0.24189837582422052	0.8202955012004665	0.966902071914223	0.2956194587946016	1.0427686396982843	0.8792669786595411	0.29908070621298866	0.9287964412990237	0.8405387906916684	0.37736282137676536	0.7351747625114817	1.0084420009786315	0.38771068399035935	0.5068917753353641	1.167993138444793	0.42279412122194204	0.4843622094684727	0.9614770967602877	0.43414204765835684	0.5116590802656297	0.793841659993648	0.43729193066575045	0.490670995231695	0.7857041710140034	0.43325975742558265	0.45366524442105494	0.8175765428425781	0.09918440757253112	0.7524295186478174	0.9243350890758602	-0.004263613852158489	0.5309454987396431	0.985696942177736	0.1215491098864207	0.5000625736536091	0.8384313441114108	0.20610554364929412	0.5329310663859449	0.7557312728554246	0.2217083870258106	0.5334255816807465	0.7158040986846832	0.17558526176813674	0.4733992351195808	0.7856542309293317	
162	3.375	0.3149093403276232	0.2853584349291949	1.0290644465664225	0.29207392570076973	-0.12962419834226135	1.044186002590934	0.23941009584829068	-0.5795311009808788	1.1047926178005614	0.2909408815615645	-0.5600896114177382	0.9012678360206817	0.3412202821807479	-0.552863722337351	0.9290069408071187	0.1901055881455161	-0.6496778077614688	1.1879168372179747	0.11749304892897422	0.2736461512099776	0.9774579864814328	0.08712564253304643	-0.1576365394525578	0.9972875035329205	0.07444777946113712	-0.5845515239215191	1.0405716651868755	0.14996527344124433	-0.5360500216845226	0.827708531249615	0.07881127798005311	-0.5485557737166699	0.8783417259815538	0.0705106975971094	-0.6371882478834668	1.1084099847783593	0.24234965977773182	0.8203151791301643	0.9679189687848235	0.2961789739622704	1.0423198901977522	0.8819952734694011	0.29986243150583314	0.9284199851202419	0.8414790355129147	0.3794899058590694	0.7359076210460442	1.0066580203106283	0.38786833602860804	0.5055505813851306	1.1678096535400195	0.42149903618201	0.4823298599283988	0.9601418208960162	0.43094917292172386	0.5093161033053757	0.7935521508060974	0.4353896799130532	0.48537525908676393	0.7840100374756239	0.4325094762314537	0.4527138926516401	0.8148055459455578	0.09925523780273333	0.7526063180430325	0.9239267850334495	-0.004151668834360434	0.5317122034046338	0.9856338700781853	0.12213047377388515	0.4994496577970409	0.8376603221734991	0.20926289826539027	0.5338857543077904	0.7527712044064419	0.2231771358523913	0.5338663084368047	0.7147667961821421	0.17855227199092252	0.4737631725099961	0.7828087336129339	
